%FSDAX33Y33*%
%MOMM*%
%SFA1B1*%

%IPPOS*%
%ADD9500C,0.299999*%
%ADD9501C,0.399999*%
%ADD9502C,0.499999*%
%ADD9503C,0.900001*%
%ADD9504C,1.100000*%
%ADD9505C,1.200000*%
%ADD9506C,1.599999*%
%ADD9507C,3.200001*%
%LNdrill-1*%
%LPD*%
G54D9507*
X004999Y004999D03*
Y054999D03*
G54D9505*
X014459Y055999D03*
X019539D03*
G54D9506*
X026599Y017999D03*
G54D9507*
X029999Y004999D03*
Y054999D03*
G54D9503*
X035869Y004999D03*
Y054999D03*
X038409Y004999D03*
Y054999D03*
X040949Y004999D03*
Y054999D03*
X043489Y004999D03*
Y054999D03*
X046029Y004999D03*
Y054999D03*
X048569Y004999D03*
Y054999D03*
X051109Y004999D03*
Y054999D03*
X053649Y004999D03*
Y054999D03*
X056189Y004999D03*
Y054999D03*
X058729Y004999D03*
Y054999D03*
X061269Y004999D03*
Y054999D03*
X063809Y004999D03*
Y054999D03*
X066349Y004999D03*
Y054999D03*
X068889Y004999D03*
Y054999D03*
X071429Y004999D03*
Y054999D03*
X073969Y004999D03*
Y054999D03*
X076509Y004999D03*
Y054999D03*
X079049Y004999D03*
Y054999D03*
X081589Y004999D03*
Y054999D03*
X084129Y004999D03*
Y054999D03*
G54D9507*
X089999Y004999D03*
Y054999D03*
G54D9504*
X093399Y017999D03*
G54D9507*
X114999Y004999D03*
Y054999D03*
G54D9501*
X001599Y040299D03*
X002799Y009099D03*
X003199Y020799D03*
X003599Y041299D03*
G54D9502*
X004499Y043688D03*
Y044999D03*
X004826Y046228D03*
G54D9501*
X006223Y011684D03*
Y017526D03*
X006399Y031299D03*
X007620Y010160D03*
G54D9502*
X007620Y016764D03*
G54D9501*
X007620Y030480D03*
G54D9500*
X007620Y038862D03*
G54D9502*
X008699Y034199D03*
G54D9501*
X009017Y027559D03*
G54D9502*
X009144Y012700D03*
X009199Y036499D03*
X009652Y024257D03*
X009906Y020828D03*
G54D9501*
X010160Y005080D03*
G54D9502*
X010160Y043053D03*
G54D9501*
X010160Y055880D03*
G54D9502*
X010922Y045212D03*
X011938Y019050D03*
Y044196D03*
X012573Y015621D03*
G54D9501*
X012700Y030480D03*
G54D9502*
X013208Y028448D03*
X013335Y019050D03*
Y025908D03*
G54D9500*
X013462Y038608D03*
G54D9502*
X013716Y012954D03*
G54D9500*
X014224Y033528D03*
G54D9502*
X014399Y029399D03*
X015240Y007112D03*
X015749Y038100D03*
X016002Y026924D03*
X016510Y043180D03*
G54D9500*
X017018Y033782D03*
G54D9501*
X017780Y020320D03*
Y040640D03*
G54D9502*
X018063Y048921D03*
X019558Y050321D03*
G54D9501*
X020066Y020955D03*
X020320Y005080D03*
Y015240D03*
Y024257D03*
Y025400D03*
G54D9502*
X021209Y011557D03*
X021749Y009999D03*
G54D9500*
X021999Y031999D03*
X022606Y036576D03*
G54D9502*
X022999Y009249D03*
G54D9500*
X022999Y029299D03*
G54D9502*
X023368Y012827D03*
G54D9500*
X023999Y031999D03*
G54D9502*
X024511Y012065D03*
G54D9501*
X025019Y024003D03*
X025400Y005080D03*
Y025400D03*
G54D9502*
X027169Y034003D03*
X027178Y047498D03*
G54D9501*
X027432Y026924D03*
Y037973D03*
X027940Y020320D03*
G54D9502*
X029718Y030734D03*
X030214Y015679D03*
X030734Y020320D03*
X031992Y015679D03*
X032336Y020320D03*
X032499Y037249D03*
G54D9501*
X032766Y028829D03*
G54D9502*
X033655Y037084D03*
X033782Y038862D03*
X033857Y015679D03*
X034114Y020320D03*
X034214Y036035D03*
X034999Y038749D03*
G54D9500*
X035499Y047999D03*
G54D9502*
X035635Y015679D03*
X035892Y020320D03*
X035999Y040386D03*
X036371Y046101D03*
X036499Y041999D03*
X037413Y015679D03*
X037713Y020320D03*
X038715Y038599D03*
X038952Y037292D03*
X038999Y029499D03*
X039191Y015679D03*
X039491Y020320D03*
X039499Y023999D03*
Y035749D03*
X040627Y037127D03*
X040894Y015748D03*
X041275Y019431D03*
X041529Y036068D03*
G54D9501*
X042999Y031250D03*
X043180Y050800D03*
G54D9502*
X044657Y015679D03*
X044704Y047498D03*
X044958Y020320D03*
X045466Y048895D03*
X045499Y046499D03*
X046249Y043999D03*
X046435Y015679D03*
X046499Y010499D03*
X046736Y020320D03*
Y042799D03*
X047421Y040817D03*
X047499Y010999D03*
X048213Y015679D03*
G54D9501*
X048260Y010160D03*
Y030480D03*
Y046355D03*
G54D9502*
X048514Y020320D03*
X048999Y032999D03*
X049991Y015679D03*
X050292Y020320D03*
X050749Y036249D03*
X051689Y037084D03*
X051749Y038749D03*
X051857Y015679D03*
X052324Y023876D03*
X052832Y018923D03*
X052996Y037969D03*
G54D9501*
X053340Y010160D03*
Y040640D03*
Y050800D03*
G54D9502*
X053635Y015679D03*
X053848Y024892D03*
X055413Y015679D03*
X055757Y020320D03*
G54D9501*
X055880Y045720D03*
G54D9502*
X057191Y015679D03*
X057535Y020320D03*
G54D9501*
X058420Y010160D03*
Y050800D03*
G54D9502*
X059057Y015679D03*
X059313Y020320D03*
X060835Y015679D03*
X061091Y020320D03*
X062613Y015679D03*
X062957Y020320D03*
G54D9501*
X063500Y010160D03*
Y040640D03*
Y050800D03*
G54D9502*
X064391Y015679D03*
X064735Y020320D03*
G54D9501*
X066040Y025400D03*
G54D9502*
X066257Y015679D03*
X066513Y020320D03*
X066548Y052577D03*
X068035Y015679D03*
X068291Y020320D03*
G54D9501*
X068580Y010160D03*
Y040640D03*
G54D9502*
X069813Y015679D03*
G54D9501*
X071120Y025400D03*
Y045720D03*
G54D9502*
X071591Y015679D03*
X071957Y020320D03*
X072898Y052324D03*
X073457Y015679D03*
G54D9501*
X073660Y040640D03*
Y050800D03*
G54D9502*
X073735Y020320D03*
X073914Y009652D03*
X075235Y015679D03*
G54D9501*
X075311Y006604D03*
G54D9502*
X075513Y020320D03*
G54D9501*
X076200Y025400D03*
Y045720D03*
G54D9502*
X077013Y015679D03*
X077291Y020320D03*
X078276Y015679D03*
G54D9501*
X078740Y020320D03*
Y040640D03*
Y050800D03*
X079629Y008636D03*
G54D9502*
X080010Y015748D03*
X080271Y020193D03*
X080635Y012119D03*
G54D9501*
X081280Y025400D03*
Y045720D03*
G54D9502*
X081791Y019815D03*
X082413Y012119D03*
X083566Y020066D03*
G54D9501*
X083820Y040640D03*
Y050800D03*
X084455Y008636D03*
G54D9502*
X084836Y018161D03*
X085725Y015748D03*
X086186Y020193D03*
G54D9501*
X086360Y045720D03*
G54D9502*
X087918Y015577D03*
X088345Y020320D03*
G54D9501*
X088900Y030480D03*
Y040640D03*
G54D9502*
X089154Y015875D03*
X089557Y019558D03*
X090043Y016804D03*
X091059Y015748D03*
X091186Y020574D03*
X091440Y012319D03*
G54D9501*
X091440Y045720D03*
X092329Y008382D03*
X093345Y012319D03*
X093980Y010160D03*
Y030480D03*
Y040640D03*
G54D9500*
X095999Y026999D03*
Y031999D03*
G54D9501*
X096520Y005080D03*
Y015240D03*
Y035560D03*
Y045720D03*
G54D9500*
X096999Y029299D03*
G54D9502*
X097028Y050292D03*
X097536Y048006D03*
G54D9500*
X097999Y026999D03*
Y031999D03*
G54D9501*
X099060Y010160D03*
Y020320D03*
Y040640D03*
X101600Y005080D03*
Y015240D03*
Y045720D03*
X104139Y010160D03*
X106680Y005080D03*
Y015240D03*
G54D9502*
X106749Y025999D03*
Y038000D03*
Y049999D03*
G54D9501*
X107999Y016499D03*
Y017499D03*
Y028499D03*
Y029499D03*
Y040499D03*
Y041499D03*
X109249Y022999D03*
Y034999D03*
Y046999D03*
X109499Y020199D03*
Y024749D03*
Y032199D03*
Y036749D03*
Y044250D03*
Y048499D03*
G54D9500*
X111499Y018499D03*
G54D9502*
X111762Y021999D03*
Y033999D03*
Y045999D03*
X111999Y023999D03*
Y036249D03*
X113249Y025000D03*
Y036999D03*
Y048999D03*
G54D9501*
X114300Y020320D03*
Y050800D03*
G54D9500*
X115499Y025499D03*
Y038000D03*
X115999Y031499D03*
X116499Y033499D03*
Y041499D03*
Y045499D03*
M02*