%FSDAX33Y33*%
%MOMM*%
%SFA1B1*%

%IPPOS*%
%AMD38*
4,1,4,-0.812800,0.033020,0.033020,-0.812800,0.812800,-0.033020,-0.033020,0.812800,-0.812800,0.033020,0.0*
%
%AMD39*
4,1,4,-0.591820,0.000000,0.000000,-0.591820,0.591820,0.000000,0.000000,0.591820,-0.591820,0.000000,0.0*
%
%AMD40*
4,1,4,-0.017780,-0.548640,0.548640,0.017780,0.017780,0.548640,-0.548640,-0.017780,-0.017780,-0.548640,0.0*
%
%AMD41*
4,1,4,0.000000,0.591820,-0.591820,0.000000,0.000000,-0.591820,0.591820,0.000000,0.000000,0.591820,0.0*
%
%AMD48*
4,1,4,0.000000,-0.591820,0.591820,0.000000,0.000000,0.591820,-0.591820,0.000000,0.000000,-0.591820,0.0*
%
%AMD49*
4,1,4,0.353060,-0.708660,0.708660,-0.353060,-0.353060,0.708660,-0.708660,0.353060,0.353060,-0.708660,0.0*
1,1,0.503199,0.530860,-0.530860*
1,1,0.503199,-0.530860,0.530860*
%
%AMD50*
4,1,4,-0.708660,-0.353060,-0.353060,-0.708660,0.708660,0.353060,0.353060,0.708660,-0.708660,-0.353060,0.0*
1,1,0.503199,-0.530860,-0.530860*
1,1,0.503199,0.530860,0.530860*
%
%ADD26C,0.381000*%
%ADD27C,0.254000*%
%ADD28R,0.753199X0.803199*%
%ADD29R,0.843201X0.843201*%
%ADD30R,1.153201X0.853201*%
%ADD31R,0.853201X1.153201*%
%ADD32R,0.803199X0.753199*%
%ADD33R,0.963201X2.603200*%
%ADD34R,1.203201X0.803199*%
%ADD35R,1.503200X1.653200*%
%ADD36R,4.423199X1.933199*%
%ADD37R,1.653200X1.503200*%
G04~CAMADD=38~9~0.0~0.0~473.7~434.3~0.0~0.0~0~0.0~0.0~0.0~0.0~0~0.0~0.0~0.0~0.0~0~0.0~0.0~0.0~135.0~640.0~639.0*
%ADD38D38*%
G04~CAMADD=39~10~0.0~332.0~0.0~0.0~0.0~0.0~0~0.0~0.0~0.0~0.0~0~0.0~0.0~0.0~0.0~0~0.0~0.0~0.0~135.0~466.0~465.0*
%ADD39D39*%
G04~CAMADD=40~9~0.0~0.0~316.2~296.5~0.0~0.0~0~0.0~0.0~0.0~0.0~0~0.0~0.0~0.0~0.0~0~0.0~0.0~0.0~225.0~432.0~431.0*
%ADD40D40*%
G04~CAMADD=41~10~0.0~332.0~0.0~0.0~0.0~0.0~0~0.0~0.0~0.0~0.0~0~0.0~0.0~0.0~0.0~0~0.0~0.0~0.0~45.0~466.0~465.0*
%ADD41D41*%
%ADD42R,1.203201X1.103201*%
%ADD43R,1.103201X1.203201*%
%ADD44R,1.183201X0.993201*%
%ADD45R,1.603200X1.403200*%
%ADD46O,1.153201X0.453200*%
%ADD47O,0.453200X1.153201*%
G04~CAMADD=48~10~0.0~332.0~0.0~0.0~0.0~0.0~0~0.0~0.0~0.0~0.0~0~0.0~0.0~0.0~0.0~0~0.0~0.0~0.0~225.0~466.0~465.0*
%ADD48D48*%
G04~CAMADD=49~3~0.0~0.0~198.1~788.7~0.0~0.0~0~0.0~0.0~0.0~0.0~0~0.0~0.0~0.0~0.0~0~0.0~0.0~0.0~225.0~616.0~616.0*
%ADD49D49*%
G04~CAMADD=50~3~0.0~0.0~198.1~788.7~0.0~0.0~0~0.0~0.0~0.0~0.0~0~0.0~0.0~0.0~0.0~0~0.0~0.0~0.0~135.0~616.0~616.0*
%ADD50D50*%
%ADD51R,0.553199X2.203201*%
%ADD52R,4.203200X7.003199*%
%ADD53R,1.353200X1.603200*%
%ADD54R,1.103201X0.653199*%
%ADD55R,1.553200X0.603199*%
%ADD56R,1.803199X2.303201*%
%ADD57R,2.103199X2.003199*%
%ADD58R,1.403200X2.703200*%
%ADD59R,2.603200X0.963201*%
%ADD60C,1.219200*%
%ADD61C,6.203201*%
%ADD62C,1.803199*%
%ADD63C,1.003201*%
%ADD64C,2.203201*%
%ADD65C,0.803199*%
%ADD66C,1.103201*%
%ADD67C,0.903201*%
%LNgrb_top_solder-1*%
%LPD*%
G54D27*
X006787Y059143D02*
X007041Y058889D01*
X006787Y059397D02*
Y059143D01*
X007041Y058127D02*
X006787Y058381D01*
X007041Y058889D02*
X007549D01*
X007041Y059651D02*
X006787Y059397D01*
X007549Y058127D02*
X007041D01*
X007549Y058889D02*
X007803Y058635D01*
X007549Y059651D02*
X007041D01*
X007803Y058381D02*
X007549Y058127D01*
X007803Y058635D02*
Y058381D01*
Y059397D02*
X007549Y059651D01*
X008311Y058127D02*
X009326D01*
X008311Y058889D02*
X008819D01*
X008311Y059651D02*
Y058127D01*
X009326Y059651D02*
X008311D01*
X009834Y058127D02*
Y059651D01*
X010850Y058127D01*
Y059651D01*
X011358Y059143D02*
X011612Y058889D01*
X011358Y059397D02*
Y059143D01*
X011612Y058127D02*
X011358Y058381D01*
X011612Y058889D02*
X012120D01*
X011612Y059651D02*
X011358Y059397D01*
X012120Y058127D02*
X011612D01*
X012120Y058889D02*
X012373Y058635D01*
X012120Y059651D02*
X011612D01*
X012373Y058381D02*
X012120Y058127D01*
X012373Y058635D02*
Y058381D01*
Y059397D02*
X012120Y059651D01*
X042987Y036127D02*
Y037627D01*
Y036127D02*
X044237Y034877D01*
X047115D01*
X046987Y039378D02*
X048591D01*
X047115Y034877D02*
X048267Y036029D01*
X048591Y039378D02*
X050023Y037945D01*
X049707Y036369D02*
X050479D01*
X050023Y037945D02*
X050419D01*
X050737Y037627D01*
X050479Y036369D02*
X050737Y036627D01*
Y037627D01*
X054387Y038827D02*
Y040351D01*
X054895Y039843D01*
X054487Y050127D02*
X054995D01*
X054487Y051651D02*
X054995D01*
X054741Y050127D02*
X054487D01*
X054741Y051651D02*
Y050127D01*
X054895Y039843D02*
X055403Y040351D01*
X054995Y051651D02*
X054741D01*
X055403Y040351D02*
Y038827D01*
X055757Y050127D02*
Y051651D01*
X056265Y051143D01*
X055911Y039081D02*
X056165Y038827D01*
X055911Y040097D02*
Y039081D01*
X056165Y038827D02*
X056673D01*
X056165Y040351D02*
X055911Y040097D01*
X056265Y051143D02*
X056773Y051651D01*
X056673Y038827D02*
X056926Y039081D01*
X056673Y040351D02*
X056165D01*
X056773Y051651D02*
Y050127D01*
X056926Y040097D02*
X056673Y040351D01*
X057280Y050381D02*
X057534Y050127D01*
X057280Y051651D02*
Y050381D01*
X057434Y039081D02*
X057688Y038827D01*
X057434Y040351D02*
Y039081D01*
X057534Y050127D02*
X058042D01*
X057688Y038827D02*
X058196D01*
X058042Y050127D02*
X058296Y050381D01*
X058196Y038827D02*
X058450Y039081D01*
X058296Y050381D02*
Y051651D01*
X058450Y039081D02*
Y040351D01*
G54D26*
X061239Y038582D02*
X062239D01*
X061239Y040581D02*
Y038582D01*
Y041896D02*
X061905Y042562D01*
X061239Y043895D02*
Y041896D01*
X061905Y042562D02*
X062572Y041896D01*
X062239Y038582D02*
X062572Y038915D01*
X062239Y039915D02*
X061239D01*
X062572Y038915D02*
Y039249D01*
Y039582D01*
X062239Y039915D01*
X062572Y041896D02*
Y043895D01*
X063238Y038915D02*
Y039582D01*
X063571Y039915D01*
X063238Y042229D02*
Y042895D01*
X063571Y043229D01*
Y038582D02*
X063238Y038915D01*
X063571Y039915D02*
X064238D01*
X063571Y041896D02*
X063238Y042229D01*
X063571Y043229D02*
X064238D01*
Y038582D02*
X063571D01*
X064238Y039915D02*
X064571Y039582D01*
X064238Y041896D02*
X063571D01*
X064238Y043229D02*
X064571Y042895D01*
Y039249D02*
X063238D01*
X064571Y039582D02*
Y039249D01*
Y042562D02*
X063238D01*
X064571Y042895D02*
Y042562D01*
X065238Y038915D02*
X065571Y038582D01*
X065238Y039582D02*
Y038915D01*
X065571Y038582D02*
X066571D01*
X065571Y039915D02*
X065238Y039582D01*
X066571Y039915D02*
X065571D01*
X067237Y038915D02*
X067570Y039249D01*
X067237Y042229D02*
Y042895D01*
X067570Y043229D01*
Y038582D02*
X067237Y038915D01*
X067570Y039249D02*
X068570D01*
X067570Y039915D02*
X068237D01*
X067570Y041896D02*
X067237Y042229D01*
X067570Y043229D02*
X068570D01*
X068237Y039915D02*
X068570Y039582D01*
Y038582D02*
X067570D01*
X068570Y039582D02*
Y038582D01*
Y041896D02*
X067570D01*
X068570Y043895D02*
Y041896D01*
X069236Y038915D02*
X069570Y038582D01*
X069236Y039915D02*
Y038915D01*
Y042229D02*
X069570Y041896D01*
X069236Y042895D02*
Y042229D01*
X069570Y038582D02*
X070569D01*
X069570Y041896D02*
X070236D01*
X069570Y043229D02*
X069236Y042895D01*
X070236Y041896D02*
X070569Y042229D01*
X070236Y043229D02*
X069570D01*
X070569Y038582D02*
Y039915D01*
Y042229D02*
Y042895D01*
X070236Y043229D01*
X071236Y038582D02*
X072235D01*
X071236Y039582D02*
X071569Y039915D01*
Y039249D02*
X071236Y039582D01*
X071569Y039915D02*
X072569D01*
X072235Y038582D02*
X072569Y038915D01*
X072235Y039249D02*
X071569D01*
X072569Y038915D02*
X072235Y039249D01*
X073235Y038915D02*
Y039582D01*
X073568Y039915D01*
X073235Y042229D02*
X073568Y041896D01*
X073235Y043229D02*
Y042229D01*
X073568Y038582D02*
X073235Y038915D01*
X073568Y039915D02*
X074235D01*
X073568Y041896D02*
X073901Y042229D01*
X074235Y041896D01*
Y038582D02*
X073568D01*
X074235Y039915D02*
X074568Y039582D01*
X074235Y041896D02*
X074568Y042229D01*
Y039249D02*
X073235D01*
X074568Y039582D02*
Y039249D01*
Y042229D02*
Y043229D01*
X075234Y041896D02*
Y042895D01*
X075568Y043229D01*
X075234Y043895D02*
Y041896D01*
X075568Y043229D02*
X076234D01*
X076567Y042895D01*
Y041896D01*
X077234Y038915D02*
X077567Y038582D01*
X077234Y039915D02*
Y038915D01*
Y042229D02*
X077567Y042562D01*
Y038582D02*
X077900Y038915D01*
X077567Y041896D02*
X077234Y042229D01*
X077567Y042562D02*
X078567D01*
X077567Y043229D02*
X078233D01*
X077900Y038915D02*
X078233Y038582D01*
X078567Y038915D01*
X078233Y043229D02*
X078567Y042895D01*
Y038915D02*
Y039915D01*
Y041896D02*
X077567D01*
X078567Y042895D02*
Y041896D01*
X079233Y038915D02*
Y039582D01*
X079566Y039915D01*
X079233Y043229D02*
X079900D01*
X079566Y038582D02*
X079233Y038915D01*
X079566Y039915D02*
X080233D01*
X079566Y042229D02*
X079900Y041896D01*
X079566Y043229D02*
X079233D01*
X079566D02*
Y042229D01*
Y043562D02*
Y043229D01*
X079900D02*
X079566D01*
X080233Y038582D02*
X079566D01*
X080233Y039915D02*
X080566Y039582D01*
Y039249D02*
X079233D01*
X080566Y039582D02*
Y039249D01*
X082899Y042229D02*
X083232Y041896D01*
X082899Y043229D02*
Y042229D01*
X083232Y041896D02*
X083565Y042229D01*
X083232Y038915D02*
X083565Y038582D01*
X083232Y039582D02*
Y038915D01*
X083565Y042229D02*
X083898Y041896D01*
X083565Y038582D02*
X084565D01*
X083565Y039915D02*
X083232Y039582D01*
X083898Y041896D02*
X084231Y042229D01*
Y043229D01*
X084565Y039915D02*
X083565D01*
X084898Y042229D02*
Y042895D01*
X085231Y043229D01*
Y041896D02*
X084898Y042229D01*
X085231Y043229D02*
X085898D01*
X085231Y038915D02*
X085564Y039249D01*
Y038582D02*
X085231Y038915D01*
X085564Y039249D02*
X086564D01*
X085564Y039915D02*
X086231D01*
X085898Y041896D02*
X085231D01*
X085898Y043229D02*
X086231Y042895D01*
Y042562D02*
X084898D01*
X086231Y042895D02*
Y042562D01*
X086231Y039915D02*
X086564Y039582D01*
Y038582D02*
X085564D01*
X086564Y039582D02*
Y038582D01*
X087231D02*
Y039915D01*
X088230D01*
X088563Y039582D01*
Y038582D01*
X088897Y041896D02*
Y043229D01*
X089230D01*
X089563Y042895D01*
X089230Y038582D02*
Y038915D01*
X089563D01*
Y041896D02*
Y042895D01*
Y041896D01*
Y042895D02*
X089896Y043229D01*
X089563Y038582D02*
X089230D01*
X089563Y038915D02*
Y038582D01*
X089896Y043229D02*
X090230Y042895D01*
Y041896D01*
X090896Y042229D02*
X091229Y041896D01*
X090896Y043229D02*
Y042229D01*
X091229Y041896D02*
X092229D01*
Y043229D01*
X092895Y041896D02*
X093895D01*
X092895Y042895D02*
X093229Y043229D01*
Y042562D02*
X092895Y042895D01*
X093229Y043229D02*
X094228D01*
X093895Y041896D02*
X094228Y042229D01*
X093895Y042562D02*
X093229D01*
X094228Y042229D02*
X093895Y042562D01*
X094895Y043229D02*
X095561D01*
X095228Y042229D02*
X095561Y041896D01*
X095228Y043229D02*
X094895D01*
X095228D02*
Y042229D01*
Y043562D02*
Y043229D01*
X095561D02*
X095228D01*
X096894Y041562D02*
X096561Y041229D01*
X096894Y041562D02*
X097227Y041896D01*
X096894D02*
X097227D01*
X096894Y042229D02*
Y041896D01*
X097227D02*
X096894Y041562D01*
X097227Y041896D02*
Y042229D01*
X096894D01*
G54D27*
X099987Y010461D02*
X100321Y010127D01*
X099987Y011794D02*
Y010461D01*
X100321Y010127D02*
X100987D01*
X100321Y012127D02*
X099987Y011794D01*
X100987Y010127D02*
X101320Y010461D01*
X100987Y012127D02*
X100321D01*
X101320Y010461D02*
Y011127D01*
X100654D01*
X101320Y011794D02*
X100987Y012127D01*
X101987Y010127D02*
Y012127D01*
X102986D01*
Y010794D02*
X101987D01*
X102986Y012127D02*
X103320Y011794D01*
Y011127D02*
X102986Y010794D01*
X103320Y011794D02*
Y011127D01*
X103986Y010127D02*
Y011460D01*
X104652Y012127D01*
X105319Y011460D01*
Y010127D02*
Y011127D01*
X103986D01*
X105319Y011460D02*
Y010127D01*
X105985Y011127D02*
X107318D01*
X107985Y010127D02*
X108651D01*
X108318D02*
Y012127D01*
X107985Y011794D01*
X108651Y010127D02*
X108318D01*
X109651Y010461D02*
Y010794D01*
X109984Y011127D01*
X109651Y011460D02*
Y011794D01*
X109984Y012127D01*
Y010127D02*
X109651Y010461D01*
X109984Y011127D02*
X109651Y011460D01*
X109984Y011127D02*
X110651D01*
X109984Y012127D02*
X110651D01*
Y010127D02*
X109984D01*
X110651Y011127D02*
X110984Y010794D01*
X110651Y012127D02*
X110984Y011794D01*
Y010461D02*
X110651Y010127D01*
X110984Y010794D02*
Y010461D01*
Y011460D02*
X110651Y011127D01*
X110984Y011794D02*
Y011460D01*
X113464Y021127D02*
X114226D01*
X113464Y022143D02*
Y021127D01*
Y022651D02*
X114479D01*
X113464Y024428D02*
Y024936D01*
X113718Y025190D01*
Y024175D02*
X113464Y024428D01*
X113718Y025190D02*
X114733D01*
X113972Y021635D02*
Y021889D01*
X114226Y022143D01*
Y021127D02*
X113972Y021635D01*
X114226Y022143D02*
X114733D01*
X114479Y022651D02*
X114987Y023159D01*
X114479Y023667D02*
X113464D01*
X114733Y022143D02*
X114987Y021889D01*
X114733Y024175D02*
X113718D01*
X114733Y025190D02*
X114987Y024936D01*
Y021381D02*
X114733Y021127D01*
X114987Y021889D02*
Y021381D01*
Y023159D02*
X114479Y023667D01*
X114987Y024428D02*
X114733Y024175D01*
X114987Y024936D02*
Y024428D01*
X115964Y021381D02*
Y021889D01*
X116218Y022143D01*
X115964Y022651D02*
X116979D01*
X115964Y024428D02*
Y024936D01*
X116218Y025190D01*
Y021127D02*
X115964Y021381D01*
X116218Y022143D02*
X116472D01*
X116218Y024175D02*
X115964Y024428D01*
X116218Y025190D02*
X116472D01*
Y022143D02*
X116726Y021889D01*
X116472Y025190D02*
X116726Y024936D01*
Y021635D02*
Y021889D01*
Y021635D01*
Y021889D02*
X116979Y022143D01*
X116726Y024682D02*
Y024936D01*
Y024682D01*
Y024936D02*
X116979Y025190D01*
Y022143D02*
X117233D01*
X116979Y022651D02*
X117487Y023159D01*
X116979Y023667D02*
X115964D01*
X116979Y025190D02*
X117233D01*
Y022143D02*
X117487Y021889D01*
X117233Y025190D02*
X117487Y024936D01*
Y021381D02*
X117233Y021127D01*
X117487Y021889D02*
Y021381D01*
Y023159D02*
X116979Y023667D01*
X117487Y024428D02*
X117233Y024175D01*
X117487Y024936D02*
Y024428D01*
X118464Y021381D02*
X118718Y021127D01*
X118464Y022397D02*
X119479D01*
X118464Y024175D02*
Y024682D01*
X118718Y024936D01*
Y023921D02*
X118464Y024175D01*
X118718Y024936D02*
X118972D01*
Y023921D02*
X118718D01*
X118972Y024936D02*
X119226Y024682D01*
Y024175D02*
X118972Y023921D01*
X119226Y024175D02*
Y024682D01*
X119479Y024936D01*
Y022397D02*
X119987Y022905D01*
X119479Y023413D02*
X118464D01*
X119479Y023921D02*
X119226Y024175D01*
X119479Y024936D02*
X119733D01*
Y023921D02*
X119479D01*
X119733Y024936D02*
X119987Y024682D01*
Y021127D02*
Y021635D01*
Y021381D02*
X118464D01*
X119987Y021635D02*
Y021381D01*
Y022905D02*
X119479Y023413D01*
X119987Y024175D02*
X119733Y023921D01*
X119987Y024682D02*
Y024175D01*
G54D57*
X005987Y019327D03*
Y021977D03*
Y024277D03*
Y026927D03*
Y039327D03*
Y041977D03*
Y044277D03*
Y046927D03*
G54D59*
X007037Y050587D03*
D03*
Y051857D03*
Y053127D03*
Y054397D03*
Y055667D03*
X007087Y030588D03*
D03*
Y031858D03*
Y033128D03*
Y034398D03*
Y035668D03*
G54D56*
X008537Y020028D03*
Y026227D03*
Y040027D03*
Y046228D03*
G54D55*
X008662Y021827D03*
Y022477D03*
Y023127D03*
Y023777D03*
Y024427D03*
Y041827D03*
Y042477D03*
Y043127D03*
Y043777D03*
Y044427D03*
G54D61*
X008987Y013127D03*
Y063127D03*
G54D32*
X010591Y020860D03*
Y021810D03*
G54D59*
X010937Y050587D03*
Y051857D03*
Y053127D03*
Y054397D03*
Y055667D03*
X010987Y030588D03*
Y031858D03*
Y033128D03*
Y034398D03*
Y035668D03*
G54D32*
X011099Y040672D03*
Y041622D03*
G54D28*
X011912Y048927D03*
X012862D03*
G54D29*
X013987Y048168D03*
Y049087D03*
G54D30*
X015288Y056657D03*
Y058457D03*
G54D29*
X015387Y048168D03*
Y049087D03*
G54D58*
X016727Y011981D03*
Y017481D03*
G54D28*
X017195Y019812D03*
G54D30*
X017638Y057557D03*
G54D28*
X018145Y019812D03*
G54D64*
X018447Y064127D03*
G54D58*
X019227Y011981D03*
Y017481D03*
G54D29*
X019257Y056843D03*
Y057763D03*
G54D54*
X020926Y056399D03*
Y057049D03*
Y057699D03*
G54D53*
X021137Y060127D03*
G54D58*
X021727Y011981D03*
Y017481D03*
G54D53*
X022837Y060127D03*
G54D54*
X023176Y056399D03*
Y057699D03*
G54D64*
X023527Y064127D03*
G54D29*
X024591Y056843D03*
Y057763D03*
G54D28*
X026203Y058801D03*
G54D52*
X026987Y037427D03*
G54D28*
X027153Y058801D03*
G54D29*
X027287Y056842D03*
Y057762D03*
G54D38*
X029418Y046766D03*
X030373Y047721D03*
G54D63*
X030587Y026127D03*
G54D51*
X032337Y022027D03*
G54D39*
X032364Y047172D03*
G54D32*
X032427Y041402D03*
Y042353D03*
G54D51*
X032637Y030227D03*
X032937Y022027D03*
G54D39*
X033015Y047823D03*
G54D51*
X033237Y030227D03*
X033537Y022027D03*
G54D43*
X033538Y032258D03*
G54D29*
X033697Y041418D03*
Y042337D03*
G54D51*
X033837Y030227D03*
G54D61*
X033987Y013127D03*
Y063127D03*
G54D51*
X034137Y022027D03*
X034437Y030227D03*
X034737Y022027D03*
G54D43*
X034888Y032258D03*
G54D49*
X034911Y046900D03*
G54D50*
X034911Y044355D03*
G54D51*
X035037Y030227D03*
G54D50*
X035265Y044001D03*
G54D49*
X035265Y047254D03*
G54D51*
X035337Y022027D03*
G54D50*
X035618Y043648D03*
G54D49*
X035618Y047607D03*
G54D51*
X035637Y030227D03*
X035937Y022027D03*
G54D50*
X035972Y043294D03*
G54D49*
X035972Y047961D03*
G54D51*
X036237Y030227D03*
G54D50*
X036325Y042940D03*
G54D49*
X036325Y048314D03*
G54D40*
X036417Y039197D03*
G54D51*
X036537Y022027D03*
G54D49*
X036679Y048668D03*
G54D50*
X036679Y042587D03*
G54D51*
X036837Y030227D03*
G54D50*
X037033Y042233D03*
G54D49*
X037033Y049022D03*
G54D40*
X037089Y038526D03*
G54D51*
X037137Y022027D03*
G54D50*
X037386Y041880D03*
G54D49*
X037386Y049375D03*
G54D51*
X037437Y030227D03*
X037737Y022027D03*
G54D50*
X037740Y041526D03*
G54D49*
X037740Y049729D03*
G54D51*
X038037Y030227D03*
G54D50*
X038093Y041173D03*
G54D49*
X038093Y050082D03*
G54D41*
X038206Y037917D03*
G54D51*
X038337Y022027D03*
G54D49*
X038447Y050436D03*
G54D50*
X038447Y040819D03*
G54D51*
X038637Y030227D03*
G54D50*
X038800Y040466D03*
G54D49*
X038800Y050789D03*
G54D41*
X038857Y037266D03*
G54D51*
X038937Y022027D03*
G54D50*
X039154Y040112D03*
G54D49*
X039154Y051143D03*
G54D51*
X039237Y030227D03*
G54D50*
X039507Y039759D03*
G54D49*
X039507Y051496D03*
G54D51*
X039537Y022027D03*
X039837Y030227D03*
G54D62*
X039857Y013127D03*
Y063127D03*
G54D50*
X039861Y039405D03*
G54D49*
X039861Y051850D03*
G54D51*
X040137Y022027D03*
G54D50*
X040215Y039051D03*
G54D49*
X040215Y052204D03*
G54D32*
X040309Y032036D03*
Y032986D03*
G54D51*
X040437Y030227D03*
X040737Y022027D03*
X041037Y030227D03*
G54D42*
X041087Y036052D03*
Y037402D03*
G54D43*
X041312Y055827D03*
G54D32*
X041325Y032036D03*
Y032986D03*
G54D51*
X041337Y022027D03*
X041637Y030227D03*
X041937Y022027D03*
X042237Y030227D03*
G54D62*
X042397Y013127D03*
Y063127D03*
G54D41*
X042462Y054253D03*
G54D51*
X042537Y022027D03*
G54D43*
X042662Y055827D03*
G54D49*
X042760Y039051D03*
G54D50*
X042760Y052204D03*
G54D51*
X042837Y030227D03*
G54D41*
X043113Y053602D03*
G54D49*
X043114Y039405D03*
G54D50*
X043114Y051850D03*
G54D51*
X043137Y022027D03*
X043437Y030227D03*
G54D49*
X043467Y039759D03*
G54D50*
X043467Y051496D03*
G54D51*
X043737Y022027D03*
G54D49*
X043821Y040112D03*
G54D50*
X043821Y051143D03*
G54D51*
X044037Y030227D03*
G54D49*
X044174Y040466D03*
G54D50*
X044174Y050789D03*
G54D49*
X044528Y040819D03*
G54D50*
X044528Y050436D03*
G54D29*
X044627Y036369D03*
Y037289D03*
G54D49*
X044881Y041173D03*
G54D50*
X044881Y050082D03*
G54D62*
X044937Y013127D03*
Y063127D03*
G54D35*
X045187Y019627D03*
Y032627D03*
G54D49*
X045235Y041526D03*
G54D50*
X045235Y049729D03*
G54D49*
X045589Y041880D03*
G54D50*
X045589Y049375D03*
G54D49*
X045942Y042233D03*
G54D50*
X045942Y049022D03*
G54D32*
X045987Y053652D03*
Y054602D03*
G54D45*
X046067Y036029D03*
Y037629D03*
G54D49*
X046296Y042587D03*
G54D50*
X046296Y048668D03*
G54D49*
X046649Y042940D03*
G54D50*
X046649Y048314D03*
G54D35*
X046787Y019627D03*
Y032627D03*
G54D49*
X047003Y043294D03*
G54D50*
X047003Y047961D03*
G54D49*
X047356Y043648D03*
G54D50*
X047356Y047607D03*
G54D62*
X047477Y013127D03*
Y063127D03*
G54D49*
X047710Y044001D03*
G54D50*
X047710Y047254D03*
G54D51*
X047937Y022027D03*
G54D49*
X048063Y044355D03*
G54D50*
X048063Y046900D03*
G54D51*
X048237Y030227D03*
G54D45*
X048267Y036029D03*
Y037629D03*
G54D51*
X048537Y022027D03*
X048837Y030227D03*
X049137Y022027D03*
G54D48*
X049382Y049474D03*
G54D51*
X049437Y030227D03*
G54D29*
X049707Y036369D03*
Y037289D03*
G54D51*
X049737Y022027D03*
G54D28*
X049740Y033020D03*
G54D62*
X050017Y013127D03*
Y063127D03*
G54D48*
X050033Y048823D03*
G54D51*
X050037Y030227D03*
G54D42*
X050336Y040702D03*
Y042053D03*
G54D51*
X050337Y022027D03*
X050637Y030227D03*
G54D28*
X050690Y033020D03*
G54D51*
X050937Y022027D03*
G54D46*
X051122Y053982D03*
Y054483D03*
Y054982D03*
G54D51*
X051237Y030227D03*
G54D32*
X051237Y038402D03*
Y039352D03*
G54D47*
X051497Y053107D03*
Y055857D03*
G54D51*
X051537Y022027D03*
X051837Y030227D03*
G54D44*
X051987Y040672D03*
Y042082D03*
G54D47*
X051997Y053107D03*
Y055857D03*
G54D51*
X052137Y022027D03*
G54D29*
X052295Y033528D03*
G54D51*
X052437Y030227D03*
G54D47*
X052497Y053107D03*
Y055857D03*
G54D62*
X052557Y013127D03*
Y063127D03*
G54D51*
X052737Y022027D03*
G54D47*
X052997Y053107D03*
Y055857D03*
G54D51*
X053037Y030227D03*
G54D29*
X053215Y033528D03*
G54D51*
X053337Y022027D03*
G54D46*
X053372Y053982D03*
Y054483D03*
Y054982D03*
G54D51*
X053637Y030227D03*
X053937Y022027D03*
X054237Y030227D03*
X054537Y022027D03*
X054837Y030227D03*
G54D29*
X054877Y053680D03*
Y054600D03*
Y055712D03*
Y056632D03*
G54D62*
X055097Y013127D03*
Y063127D03*
G54D30*
X055136Y033085D03*
Y034985D03*
G54D51*
X055137Y022027D03*
X055437Y030227D03*
X055737Y022027D03*
X056037Y030227D03*
X056337Y022027D03*
X056637Y030227D03*
X056937Y022027D03*
X057237Y030227D03*
G54D30*
X057486Y034036D03*
G54D51*
X057537Y022027D03*
G54D62*
X057637Y013127D03*
Y063127D03*
G54D51*
X057837Y030227D03*
X058137Y022027D03*
X058437Y030227D03*
X058737Y022027D03*
X059037Y030227D03*
X059337Y022027D03*
X059637Y030227D03*
G54D32*
X059867Y032290D03*
Y033240D03*
G54D51*
X059937Y022027D03*
G54D62*
X060177Y013127D03*
Y063127D03*
G54D51*
X060237Y030227D03*
X060537Y022027D03*
X060837Y030227D03*
G54D32*
X060883Y032290D03*
Y033240D03*
G54D51*
X061137Y022027D03*
X061437Y030227D03*
X061737Y022027D03*
X062037Y030227D03*
X062337Y022027D03*
G54D31*
X062473Y033368D03*
G54D51*
X062637Y030227D03*
G54D62*
X062717Y013127D03*
Y063127D03*
G54D51*
X062937Y022027D03*
X063237Y030227D03*
G54D31*
X063423Y035718D03*
G54D51*
X063537Y022027D03*
X063837Y030227D03*
X064137Y022027D03*
G54D31*
X064373Y033368D03*
G54D51*
X064437Y030227D03*
X064737Y022027D03*
X065037Y030227D03*
G54D62*
X065257Y013127D03*
Y063127D03*
G54D51*
X065337Y022027D03*
X065637Y030227D03*
X065937Y022027D03*
X066237Y030227D03*
X066537Y022027D03*
X066837Y030227D03*
X067137Y022027D03*
X067437Y030227D03*
X067737Y022027D03*
G54D62*
X067797Y013127D03*
Y063127D03*
G54D51*
X068037Y030227D03*
X068337Y022027D03*
X068637Y030227D03*
X068937Y022027D03*
X069237Y030227D03*
X069537Y022027D03*
X069837Y030227D03*
X070137Y022027D03*
G54D62*
X070337Y013127D03*
Y063127D03*
G54D51*
X070437Y030227D03*
X070737Y022027D03*
X071037Y030227D03*
X071337Y022027D03*
X071637Y030227D03*
X071937Y022027D03*
X072237Y030227D03*
X072537Y022027D03*
X072837Y030227D03*
G54D62*
X072877Y013127D03*
Y063127D03*
G54D51*
X073137Y022027D03*
X073437Y030227D03*
X073737Y022027D03*
X074037Y030227D03*
X074337Y022027D03*
X074637Y030227D03*
X074937Y022027D03*
X075237Y030227D03*
G54D62*
X075417Y013127D03*
Y063127D03*
G54D51*
X075537Y022027D03*
X075837Y030227D03*
X076137Y022027D03*
X076437Y030227D03*
X076737Y022027D03*
X077037Y030227D03*
X077337Y022027D03*
X077637Y030227D03*
X077937Y022027D03*
G54D62*
X077957Y013127D03*
Y063127D03*
G54D51*
X078237Y030227D03*
X078537Y022027D03*
X078837Y030227D03*
X079137Y022027D03*
X079437Y030227D03*
X079737Y022027D03*
X080037Y030227D03*
X080337Y022027D03*
G54D62*
X080497Y013127D03*
Y063127D03*
G54D51*
X080637Y030227D03*
X080937Y022027D03*
X081237Y030227D03*
X081537Y022027D03*
X081837Y030227D03*
X082137Y022027D03*
X082437Y030227D03*
X082737Y022027D03*
X083037Y030227D03*
G54D62*
X083037Y013127D03*
Y063127D03*
G54D51*
X083337Y022027D03*
X083637Y030227D03*
X083937Y022027D03*
X084237Y030227D03*
X084537Y022027D03*
X084837Y030227D03*
X085137Y022027D03*
X085437Y030227D03*
G54D62*
X085577Y013127D03*
Y063127D03*
G54D51*
X085737Y022027D03*
X086037Y030227D03*
X086337Y022027D03*
X086637Y030227D03*
X086937Y022027D03*
X087237Y030227D03*
X087537Y022027D03*
X087837Y030227D03*
G54D62*
X088117Y013127D03*
Y063127D03*
G54D51*
X088137Y022027D03*
X088437Y030227D03*
X088737Y022027D03*
G54D60*
X088987Y019127D03*
G54D51*
X089037Y030227D03*
X089337Y022027D03*
X089637Y030227D03*
X089937Y022027D03*
X090237Y030227D03*
X090537Y022027D03*
X090837Y030227D03*
G54D37*
X090987Y018077D03*
Y019677D03*
Y032577D03*
Y034177D03*
G54D51*
X091137Y022027D03*
X091437Y030227D03*
X091737Y022027D03*
X092037Y030227D03*
X092337Y022027D03*
X092637Y030227D03*
X092937Y022027D03*
X093237Y030227D03*
G54D37*
X093237Y018077D03*
Y019677D03*
Y032577D03*
Y034177D03*
G54D51*
X093537Y022027D03*
X093837Y030227D03*
G54D61*
X093987Y013127D03*
Y063127D03*
G54D51*
X094137Y022027D03*
X094437Y030227D03*
X094737Y022027D03*
X095037Y030227D03*
X095337Y022027D03*
G54D37*
X095487Y018077D03*
Y019677D03*
Y032577D03*
Y034177D03*
G54D51*
X095637Y030227D03*
G54D63*
X097387Y026127D03*
G54D33*
X099878Y060509D03*
Y064409D03*
D03*
G54D52*
X100987Y037427D03*
G54D33*
X101148Y060509D03*
Y064409D03*
X102418Y060509D03*
Y064409D03*
X103688Y060509D03*
Y064409D03*
X104958Y060509D03*
Y064409D03*
G54D36*
X108536Y028796D03*
Y031966D03*
Y040796D03*
Y043966D03*
Y052796D03*
Y055966D03*
G54D34*
X111987Y029177D03*
Y030127D03*
Y031077D03*
Y041177D03*
Y042127D03*
Y043077D03*
Y053177D03*
Y054127D03*
Y055077D03*
G54D35*
X112054Y027079D03*
Y034191D03*
Y039079D03*
Y046191D03*
Y051079D03*
Y058191D03*
X113654Y027079D03*
Y034191D03*
Y039079D03*
Y046191D03*
Y051079D03*
Y058191D03*
G54D29*
X113737Y018167D03*
Y019087D03*
G54D34*
X114737Y029177D03*
Y030127D03*
Y031077D03*
Y041177D03*
Y042127D03*
Y043077D03*
Y053177D03*
Y054127D03*
Y055077D03*
G54D32*
X114987Y018152D03*
Y019102D03*
G54D28*
X115376Y027519D03*
Y039519D03*
Y051519D03*
G54D29*
X116237Y018167D03*
Y019087D03*
G54D28*
X116326Y027519D03*
Y039519D03*
Y051519D03*
G54D32*
X117020Y029144D03*
Y030094D03*
G54D29*
X117020Y031191D03*
Y032112D03*
G54D32*
X117020Y041144D03*
Y042094D03*
G54D29*
X117020Y043191D03*
Y044112D03*
G54D32*
X117020Y053144D03*
Y054094D03*
G54D29*
X117020Y055191D03*
Y056111D03*
G54D32*
X117487Y018152D03*
Y019102D03*
G54D29*
X118737Y018167D03*
Y019087D03*
G54D61*
X118987Y013127D03*
G54D32*
X118987Y040902D03*
Y041852D03*
Y043152D03*
Y044102D03*
Y052902D03*
Y053852D03*
Y055152D03*
Y056102D03*
G54D61*
X118987Y063127D03*
G54D32*
X119987Y018152D03*
Y019102D03*
G36*
X047523Y039505D02*
Y039251D01*
X047237Y039132*
Y039622*
X047523Y039505*
G37*
G36*
X043114Y036926D02*
X042860D01*
X042672Y037306*
X043302*
X043114Y036926*
G37*
G54D67*
X005587Y048427D03*
X006787Y017227D03*
X007187Y028927D03*
X007587Y049427D03*
G54D66*
X008487Y051816D03*
Y053127D03*
X008813Y054356D03*
G54D67*
X010210Y019812D03*
Y025654D03*
X010387Y039427D03*
G54D66*
X011607Y024892D03*
G54D65*
X011607Y046990D03*
G54D66*
X012687Y042327D03*
G54D67*
X013004Y035687D03*
G54D66*
X013131Y020828D03*
X013187Y044627D03*
X013639Y032385D03*
X013893Y028956D03*
X014147Y051181D03*
X014909Y053340D03*
X015925Y027178D03*
Y052324D03*
X016560Y023749D03*
X017195Y036576D03*
X017322Y027178D03*
Y034036D03*
G54D65*
X017449Y046736D03*
G54D66*
X017703Y021082D03*
G54D65*
X018211Y041656D03*
G54D66*
X018387Y037527D03*
X019227Y015240D03*
X019737Y046228D03*
X019989Y035052D03*
X020497Y051308D03*
G54D65*
X021005Y041910D03*
G54D66*
X022051Y057049D03*
X023545Y058449D03*
G54D67*
X024053Y029083D03*
X024307Y032385D03*
G54D66*
X025196Y019685D03*
X025737Y018127D03*
G54D65*
X025987Y040127D03*
X026593Y044704D03*
G54D66*
X026987Y017377D03*
G54D65*
X026987Y037427D03*
G54D66*
X027355Y020955D03*
G54D65*
X027987Y040127D03*
G54D66*
X028498Y020193D03*
G54D67*
X029006Y032131D03*
G54D66*
X031157Y042131D03*
X031165Y055626D03*
G54D67*
X031419Y035052D03*
Y046101D03*
G54D66*
X033705Y038862D03*
X034201Y023807D03*
X034721Y028448D03*
X035979Y023807D03*
X036323Y028448D03*
X036487Y045377D03*
G54D67*
X036753Y036957D03*
G54D66*
X037642Y045212D03*
X037769Y046990D03*
X037845Y023807D03*
X038101Y028448D03*
X038202Y044163D03*
X038987Y046877D03*
G54D65*
X039487Y056127D03*
G54D66*
X039623Y023807D03*
X039879Y028448D03*
X039987Y048514D03*
X040359Y054229D03*
X040487Y050127D03*
X041401Y023807D03*
X041701Y028448D03*
X042703Y046727D03*
X042940Y045420D03*
X042987Y037627D03*
X043179Y023807D03*
X043479Y028448D03*
X043487Y032127D03*
Y043877D03*
X044615Y045255D03*
X044881Y023876D03*
X045262Y027559D03*
X045516Y044196D03*
G54D67*
X046987Y039378D03*
G54D66*
X048645Y023807D03*
X048691Y055626D03*
X048945Y028448D03*
X049453Y057023D03*
X049487Y054627D03*
X050237Y052127D03*
X050423Y023807D03*
X050487Y018627D03*
X050723Y028448D03*
Y050927D03*
X051409Y048945D03*
X051487Y019127D03*
X052201Y023807D03*
X052501Y028448D03*
X052987Y041127D03*
X053979Y023807D03*
X054279Y028448D03*
X054737Y044377D03*
X055676Y045212D03*
X055737Y046877D03*
X055845Y023807D03*
X056311Y032004D03*
X056819Y027051D03*
X056983Y046097D03*
X057623Y023807D03*
X057835Y033020D03*
X059401Y023807D03*
X059745Y028448D03*
X061179Y023807D03*
X061523Y028448D03*
X063045Y023807D03*
X063301Y028448D03*
X064823Y023807D03*
X065079Y028448D03*
X066601Y023807D03*
X066945Y028448D03*
X068379Y023807D03*
X068723Y028448D03*
X070245Y023807D03*
X070501Y028448D03*
X070535Y060706D03*
X072023Y023807D03*
X072279Y028448D03*
X073801Y023807D03*
X075579D03*
X075945Y028448D03*
X076885Y060452D03*
X077445Y023807D03*
X077723Y028448D03*
X077901Y017780D03*
X079223Y023807D03*
G54D67*
X079298Y014732D03*
G54D66*
X079501Y028448D03*
X081001Y023807D03*
X081279Y028448D03*
X082263Y023807D03*
G54D67*
X083616Y016764D03*
G54D66*
X083997Y023876D03*
X084258Y028321D03*
X084623Y020247D03*
X085779Y027943D03*
X086401Y020247D03*
X087553Y028194D03*
G54D67*
X088442Y016764D03*
G54D66*
X088823Y026289D03*
X089712Y023876D03*
X090174Y028321D03*
X091906Y023705D03*
X092333Y028448D03*
X093141Y024003D03*
X093545Y027686D03*
X094030Y024932D03*
X095046Y023876D03*
X095173Y028702D03*
X095427Y020447D03*
G54D67*
X096316Y016510D03*
X097332Y020447D03*
G54D65*
X099987Y035127D03*
Y040127D03*
X100987Y037427D03*
G54D66*
X101015Y058420D03*
X101523Y056134D03*
G54D65*
X101987Y035127D03*
Y040127D03*
G54D66*
X110737Y034127D03*
Y046128D03*
Y058127D03*
G54D67*
X111987Y024627D03*
Y025627D03*
Y036627D03*
Y037627D03*
Y048627D03*
Y049627D03*
X113237Y031127D03*
Y043127D03*
Y055127D03*
X113487Y028327D03*
Y032877D03*
Y040327D03*
Y044877D03*
Y052378D03*
Y056627D03*
G54D65*
X115487Y026627D03*
G54D66*
X115750Y030127D03*
Y042127D03*
Y054127D03*
X115987Y032127D03*
Y044377D03*
X117237Y033128D03*
Y045127D03*
Y057127D03*
G54D65*
X119487Y033627D03*
Y046128D03*
X119987Y039627D03*
X120487Y041627D03*
Y049627D03*
Y053627D03*
M02*